<?xml version="1.0" encoding="UTF-8"?>
<!DOCTYPE svg PUBLIC "-//W3C//DTD SVG 1.1//EN" "http://www.w3.org/Graphics/SVG/1.1/DTD/svg11.dtd">
<!-- Creator: CorelDRAW -->
<svg xmlns="http://www.w3.org/2000/svg" xml:space="preserve" width="300px" height="300px" style="shape-rendering:geometricPrecision; text-rendering:geometricPrecision; image-rendering:optimizeQuality; fill-rule:evenodd; clip-rule:evenodd"
viewBox="0 0 300 300">
 <defs>
  <style type="text/css">
   <![CDATA[
    .str0 {stroke:#C2C1C1;stroke-width:0.288}
    .fil0 {fill:#DEDEDD}
    .fil1 {fill:white}
    .fil2 {fill:#72706F;fill-rule:nonzero}
    .fil3 {fill:#838281;fill-rule:nonzero}
   ]]>
  </style>
 </defs>
 <g id="Layer_x0020_1">
  <metadata id="CorelCorpID_0Corel-Layer"/>
  <path class="fil0 str0" d="M126.814 6.91087c64.4527,0 116.722,52.2588 116.722,116.699 0,64.4398 -52.269,116.699 -116.722,116.699 -64.4523,0 -116.721,-52.2588 -116.721,-116.699 0,-64.4398 52.269,-116.699 116.721,-116.699z"/>
  <path class="fil1 str0" d="M208.719 98.8244c48.5454,0 87.9148,39.3611 87.9148,87.8971 0,48.5359 -39.3694,87.8971 -87.9148,87.8971 -48.5458,0 -87.9145,-39.3611 -87.9145,-87.8971 0,-48.5359 39.3687,-87.8971 87.9145,-87.8971z"/>
  <path class="fil2" d="M98.6374 76.8983l0 39.9175 45.2712 -47.2059c2.17361,-2.27981 4.02898,-3.94923 5.53965,-5.0366 1.53713,-1.08624 3.57808,-1.64334 6.09638,-1.64334 3.31276,0 6.01663,0.981165 8.05795,2.91591 2.04019,1.93474 3.04781,4.29392 3.04781,7.10324 0,3.3668 -1.72309,6.70677 -5.19534,10.0191l-28.0165 26.5591 32.284 46.278c2.27981,3.20731 4.00214,6.01701 5.14167,8.40227 1.13991,2.41209 1.69663,4.7709 1.69663,7.05109 0,2.51754 -1.00687,4.71798 -2.99452,6.59943 -1.98803,1.85537 -4.69228,2.78324 -8.11124,2.78324 -3.20693,0 -5.83068,-0.689008 -7.84517,-2.06778 -2.01449,-1.35118 -3.71112,-3.18047 -5.11635,-5.45991 -1.40447,-2.27906 -2.6502,-4.34683 -3.73682,-6.20183l-27.2477 -41.932 -18.8716 18.0763 0 23.537c0,4.7709 -1.08737,8.29682 -3.26022,10.6027 -2.17398,2.30589 -4.98369,3.44542 -8.37581,3.44542 -1.98803,0 -3.87061,-0.530268 -5.67231,-1.56397 -1.82891,-1.03332 -3.20731,-2.41209 -4.18847,-4.18734 -0.741921,-1.43169 -1.16598,-3.12831 -1.32472,-5.0366 -0.159496,-1.90828 -0.238866,-4.69115 -0.238866,-8.32252l0 -84.6327c0,-4.63786 1.03408,-8.13657 3.07502,-10.4689 2.04094,-2.33235 4.82419,-3.49946 8.34935,-3.49946 3.44542,0 6.25512,1.14028 8.40227,3.44617 2.14639,2.30589 3.23376,5.83106 3.23376,10.5222z"/>
  <path class="fil3" d="M196.774 155.599l0 27.6763 31.3882 -32.73c1.5069,-1.5806 2.79345,-2.73865 3.84151,-3.49191 1.06583,-0.754016 2.4805,-1.13953 4.22665,-1.13953 2.29682,0 4.17109,0.679937 5.5869,2.02167 1.41468,1.34173 2.11313,2.97713 2.11313,4.9251 0,2.33386 -1.19433,4.6492 -3.60189,6.94639l-19.4253 18.4146 22.3839 32.0871c1.58098,2.22387 2.77493,4.17184 3.56485,5.82576 0.791055,1.67206 1.17657,3.30746 1.17657,4.88806 0,1.74614 -0.698457,3.27156 -2.07647,4.57625 -1.37839,1.28655 -3.25266,1.92983 -5.62356,1.92983 -2.22387,0 -4.04296,-0.47811 -5.43987,-1.43395 -1.39654,-0.936945 -2.5731,-2.20498 -3.54671,-3.78557 -0.974362,-1.5806 -1.83798,-3.0138 -2.59124,-4.30035l-18.892 -29.0729 -13.0847 12.5329 0 16.3192c0,3.30822 -0.754016,5.75206 -2.26091,7.35118 -1.5069,1.59874 -3.45524,2.38942 -5.80724,2.38942 -1.37802,0 -2.68271,-0.368126 -3.9326,-1.08435 -1.26765,-0.716976 -2.22387,-1.67244 -2.90381,-2.90419 -0.514016,-0.992126 -0.808441,-2.16869 -0.918425,-3.49115 -0.11074,-1.32321 -0.165921,-3.25304 -0.165921,-5.77058l0 -58.6794c0,-3.21638 0.716976,-5.64208 2.13165,-7.25896 1.41543,-1.61764 3.34526,-2.42608 5.7891,-2.42608 2.38904,0 4.33701,0.790677 5.82576,2.38904 1.48838,1.59912 2.24239,4.04296 2.24239,7.296z"/>
 </g>
</svg>
